/* XPM */
static char *magick[] = {
/* columns rows colors chars-per-pixel */
"64 64 257 2",
"   c Gray0",
".  c #060606",
"X  c #010503",
"o  c #090909",
"O  c Gray5",
"+  c #060604",
"@  c #07071b",
"#  c #051a05",
"$  c #180502",
"%  c Gray8",
"&  c #1e1e1e",
"*  c #191719",
"=  c #12160a",
"-  c #151338",
";  c #08042d",
":  c #002a00",
">  c #072603",
",  c #033703",
"<  c #1a2c00",
"1  c #1b2d1b",
"2  c #183838",
"3  c #14272d",
"4  c #2b0100",
"5  c #241d00",
"6  c #350202",
"7  c #321635",
"8  c #3a3801",
"9  c #2b2e01",
"0  c Gray14",
"q  c Gray17",
"w  c #282a29",
"e  c #282739",
"r  c #293737",
"t  c #353535",
"y  c Gray23",
"u  c #3a3836",
"i  c #362b36",
"p  c #131340",
"a  c #251d46",
"s  c #393947",
"d  c #2c2c46",
"f  c #054103",
"g  c #005a00",
"h  c #007a00",
"j  c #076b07",
"k  c #3a4a01",
"l  c #214002",
"z  c #440504",
"x  c #590404",
"c  c #402a02",
"v  c #680303",
"b  c #413d4a",
"n  c #423e61",
"m  c #474a01",
"M  c #585000",
"N  c #697b00",
"B  c #444444",
"V  c #4b4a4b",
"C  c Gray36",
"Z  c #555456",
"A  c #535843",
"S  c #566f55",
"D  c #5d697f",
"F  c #5c7477",
"G  c #635d63",
"H  c #61735d",
"J  c #6a6a6a",
"K  c #7c7c7c",
"L  c #747573",
"P  c #6f7a6f",
"I  c #5d5980",
"U  c #695d80",
"Y  c #7d5d80",
"T  c #726b98",
"R  c #797a97",
"E  c #7a7b87",
"W  c #028602",
"Q  c #069405",
"!  c #04b304",
"~  c #2b8b03",
"^  c #02dc02",
"/  c #06d705",
"(  c #02fb00",
")  c #2cdd04",
"_  c #36ff00",
"`  c #648601",
"'  c #739305",
"]  c #4c9206",
"[  c #638663",
"{  c #6ddd04",
"}  c #5d8080",
"|  c #658483",
" . c #7f9f80",
".. c #778282",
"X. c #840100",
"o. c #950607",
"O. c #8b2b03",
"+. c #af0404",
"@. c #877504",
"#. c #924c06",
"$. c #dd0405",
"%. c #dd2c04",
"&. c #ff0003",
"*. c #ff3600",
"=. c #dd6d04",
"-. c #f9597c",
";. c #fb696e",
":. c #fc7f66",
">. c #fe7978",
",. c #805e80",
"<. c #807580",
"1. c #837691",
"2. c #ff3e9b",
"3. c #fe09c2",
"4. c #fe18c8",
"5. c #fe1fda",
"6. c Magenta",
"7. c #ff06ff",
"8. c #fc0bff",
"9. c #fe1aff",
"0. c #fa14fc",
"q. c #ff25c9",
"w. c #ff2aca",
"e. c #fd28d4",
"r. c #ff3fc8",
"t. c #fc3ed1",
"y. c #fd20eb",
"u. c #f821ff",
"i. c #ff2afe",
"p. c #f726ff",
"a. c #f939fe",
"s. c #f95d80",
"d. c #fa4b99",
"f. c #fb46b0",
"g. c #ff6383",
"h. c #fe4ae9",
"j. c #fc45fc",
"k. c #fb5dfc",
"l. c #ff56fd",
"z. c #fe5be4",
"x. c #fe63ff",
"c. c #f96dff",
"v. c #fb72fe",
"b. c #fe7cfe",
"n. c #f475fc",
"m. c #858100",
"M. c #8b9200",
"N. c #929206",
"B. c #97913b",
"V. c #86a800",
"C. c #a2af00",
"Z. c #b8b000",
"A. c #808079",
"S. c #80ff00",
"D. c #badc02",
"F. c #adcc00",
"G. c #ddad04",
"H. c #ff8000",
"J. c #fcb837",
"K. c #fc885e",
"L. c #ff817f",
"P. c #cac304",
"I. c #dadd02",
"U. c #cad300",
"Y. c #d2cc3b",
"T. c #c6e802",
"R. c #dcf900",
"E. c #d4ec00",
"W. c #f8cf1f",
"Q. c #fcd413",
"!. c #ffdb3d",
"~. c #ffd538",
"^. c #fecd2c",
"/. c #e8ff00",
"(. c #ffe919",
"). c #f4ff00",
"_. c Yellow",
"`. c #fbfd02",
"'. c #fffb09",
"]. c #ffed34",
"[. c #ffff35",
"{. c #ffc37d",
"}. c #ffff4d",
"|. c #ffff78",
" X c #828182",
".X c #8c8b8b",
"XX c #878498",
"oX c #928e92",
"OX c #9b9b9b",
"+X c #959695",
"@X c #8e9290",
"#X c #9392a1",
"$X c #87a688",
"%X c #a6a59d",
"&X c #bebb97",
"*X c #a5a4a4",
"=X c #bcbcbc",
"-X c #b6b9b5",
";X c #bbbbaf",
":X c #b6b6c7",
">X c #b7d0b5",
",X c #b9c7c8",
"<X c #c2bf9b",
"1X c #ff8383",
"2X c #c8b9c9",
"3X c #ff8ec5",
"4X c #ff83ff",
"5X c #fd8af8",
"6X c #ff94fc",
"7X c #feb2ff",
"8X c #febbfe",
"9X c #f9b3fa",
"0X c #e3df98",
"qX c #ffff80",
"wX c #e5e19a",
"eX c #ffffa5",
"rX c #ffffb6",
"tX c #c3c4c3",
"yX c #cacaca",
"uX c #c8c7c9",
"iX c #ccc2d9",
"pX c #d6d6d5",
"aX c #d2d2d0",
"sX c #c9c8e2",
"dX c #d0cee4",
"fX c #d9d9e5",
"gX c #dbd8f0",
"hX c #dbe8db",
"jX c #cfead0",
"kX c #fec3ff",
"lX c #ffcbfe",
"zX c #feddff",
"xX c #fed7f8",
"cX c #ffffc9",
"vX c #ffffd5",
"bX c #f1e6ce",
"nX c #e4e4e4",
"mX c #ebebe9",
"MX c #ffe1fd",
"NX c #ffecff",
"BX c #fee0f6",
"VX c #fdfde8",
"CX c Gray95",
"ZX c #f6f6f6",
"AX c #f5f5f1",
"SX c #fff6ff",
"DX c #fff2fd",
"FX c #fffff5",
"GX c #fffff3",
"HX c #fffaff",
"JX c #fffffa",
"KX c Gray100",
"LX c #fefdfd",
"PX c #f9f9f9",
"IX c #f1faf1",
"UX c #eef8ee",
"YX c None",
/* pixels */
"YXYXYXYXYXYXYXYXYXYXYXYXYXYXYXYXYXYXYXYXYXYXYXYXYXYXYXYXYXYXYXPXPXZXCXYXYXYXYXYXYXYXYXYXYXYXYXYXYXYXDXSXSXKXYXYXYXYXYXYXYXYXYXYX",
"YXYXYXYXYXYXYXYXYXYXYXYXYXYXYXYXYXYXYXYXYXYXYXYXYXYXYXYXYXYXYXKXPXPXZXYXYXYXYXYXYXYXYXYXYXYXYXYXYXYXSXSXHXHXYXYXYXYXYXYXYXYXYXYX",
"YXYXYXYXYXYXYXYXYXYXYXYXYXYXYXYXYXYXYXYXYXYXYXYXYXYXYXYXYXYXYXYXYXYXYXYXYXYXYXYXYXYXYXYXYXYXYXYXYXYXYXYXYXYXYXYXYXYXYXYXYXYXYXYX",
"YXYXYXYXYXYXYXYXYXYXYXYXYXYXYXYXYXYXYXYXYXYXYXYXYXYXYXKXKXKXKXYXYXYXYXKXnXpXyXaXhXIXYXHXMXlXkXlXMXKXYXYXYXYXKXKXKXKXYXYXYXYXYXYX",
"YXYXYXYXYXYXYXYXYXYXYXYXYXYXYXYXYXYXYXYXYXYXYXYXYXYXYXKXPXZXPXYXYXYXYXCX2XOX.XOX>XhXYXNX8X5Xn.5X9XPXYXYXYXYXHXSXSXKXYXYXYXYXYXYX",
"YXYXYXYXYXYXYXYXYXYXYXYXYXYXYXYXYXYXYXYXYXYXYXYXYXYXYXKXZXCXPXKXYXYXYXpXoXZ y S $XjXYXMX6Xj.y.j.5XBXYXYXYXYXHXDXSXHXYXYXYXYXYXYX",
"YXYXYXYXYXYXYXYXYXYXYXYXYXYXYXYXYXYXYXYXYXYXYXYXYXYXYXKXPXZXYXYXYXYXYX=XG *   1 [ >XYXzX4Xi.6.0.k.8XYXYXYXYXYXSXHXKXYXYXYXYXYXYX",
"YXYXYXYXYXYXYXYXYXYXYXYXYXYXYXYXYXYXYXYXYXYXYXKXKXPXKXYXYXYXYXYXmXpXuX.Xt     # S >XYXzX6Xj.0.0.a.b.8XkXzXKXYXYXYXYXKXHXKXKXYXYX",
"YXYXYXYXYXYXYXYXYXYXYXYXYXYXYXYXYXYXYXYXYXYXYXPXPXZXPXYXYXYXYXKXaX*XK V *     = H >XYXNX7Xv.k.a.p.j.k.b.7XSXYXYXYXYXHXSXHXKXYXYX",
"YXYXYXYXYXYXYXYXYXYXYXYXYXYXYXYXYXYXYXYXYXYXYXKXZXCXZXKXYXYXYXmX-XJ t 0 o     w L tXYXSXzX8X9Xn.a.9.9.a.4XMXYXYXYXKXSXDXSXHXYXYX",
"YXYXYXYXYXYXYXYXYXYXYXYXYXYXYXYXYXYXYXYXYXYXYXKXPXZXYXYXYXYXYXuX Xy           y <.uXYXYXYXYXYX9Xk.9.6.9.x.8XYXYXYXYXYXHXHXKXYXYX",
"YXYXYXYXYXYXYXYXKXKXKXKXKXPXKXKXKXKXKXKXPXPXKXYXYXYXYXYXmXpXuXOXC &       . o B XXiXYXJXVXvXcXbX3Xr.4.5.h.4X8XlXzXYXYXYXYXYXYXHX",
"YXYXYXYXYXYXYXKXKXPXPXPXPXPXPXPXPXPXPXPXZXZXPXYXYXYXYXPXaX*X..C t o       X . b 1.iXYXGXvXeXqX|.{.1Xs.f.t.j.x.4X7XNXYXYXYXYXYXHX",
"YXYXYXYXYXYXYXKXPXPXZXZXZXZXZXPXPXPXZXZXCXCXZXKXYXYXYXmX*XJ t w %             s 1.sXYXVXrX|.[.[.].^.J.:.f.y.9.a.4XzXYXYXYXYXYXSX",
"YXYXYXYXYXYXYXYXYXYXYXYXYXYXYXYXYXYXYXKXPXZXYXYXYXYXYXuX Xt                   s XXsXYXVXeX}._.).`.`._.J.g.4.6.9.k.8XYXYXYXYXYXSX",
"YXYXYXYXYXYXYXYXYXYXYXYXYXYXYXYXYXYXYXYXYXYXYXYXmXpXuXOXZ %         o .       s XXdXYXAX0XY.P.U.R.`._.(.K.2.4.e.h.5XlXxXMXDXYXSX",
"YXYXYXYXYXYXYXYXYXYXYXYXYXYXYXYXYXYXYXYXYXYXYXPXaX*X..C t +         . .       s #XfXYXnX<XB.m.M.F.)._.'.J.:.-.d.f.z.4X6X8XzXYXHX",
"YXYXYXYXYXYXYXYXYXYXYXYXYXYXYXYXYXYXYXYXYXYXYXmX*XJ t w %       . .           B OXnXYXfXOXA 8 m M.I._._.(.^.J.K.d.e.a.l.6XlXYXFX",
"YXYXYXYXYXYXYXYXYXYXYXYXYXYXYXKXPXZXYXYXYXYXYXuX Xt           o O o           B %XmXYXdX1.d   = M Z._._._._._.J.-.4.6.i.v.8XYXYX",
"KXKXYXYXYXYXYXCXnXpXuXuXuXuXuXuXtXtXuXuXuXuXuXOXZ %         o O % O           V %XmXYXdXR -     9 @.P.I./.)._.W.;.3.6.8.x.8XYXYX",
"PXPXYXYXYXYXYXnX=XOX X X X X X XK K  X X X X XC t           . O O O           V %XmXYXpXR -     $ M N C.T./._.Q.;.3.6.8.x.8XYXYX",
"ZXZXYXYXYXYXYXpXOXC t t t t t y y t t t t t t w %             . o o           V %XmXYXfX.Xq       5 8 N F.R._.^.>.4.6.0.x.8XYXYX",
"CXZXYXYXYXYXYXuXK t           o .                               . o           B OXnXYXnX%XV           k V.T._.~.>.q.6.u.c.8XYXYX",
"CXZXYXYXYXYXYXtXJ &                                 o . . .     . o           B +XpXYXmX;XL u w @ .   9 ' T.'.~.1Xw.7.p.v.kXYXYX",
"CXZXYXYXYXYXYXtXJ &                                 . . . . . . o o           y .XaXYXAXaX%XA.Z e @   < ` D.'.!.1Xw.7.p.v.kXYXYX",
"CXZXYXYXYXYXYXtXL w                                   . . o o o o o           y  XuXYXPXmXpXtXXXn ;   < ` D._.!.1Xw.6.u.c.8XYXYX",
"CXZXYXYXYXYXYXuXK t           o .                               . o           t K tXYXYXYXYXYX:XI -   < ` D._.!.1Xq.6.u.c.kXYXYX",
"CXZXYXYXYXYXYXuX Xy o o o o o % O o o o . . o . .                 .           t L =XYXYXYXYXYXdXT a + < ` D._.!.1Xq.6.u.c.8XYXYX",
"CXZXYXYXYXYXYXuXK y o . . . . O O o . . . . o .                   . . .       q L -XYXYXYXYXYXgXT a + < ` D._.!.1Xq.6.u.c.kXYXYX",
"CXZXYXYXYXYXYXuXK t           o o .                               . o . .     t L =XYXYXYXYXYXdXT a + < ` D._.!.1Xq.6.u.c.8XYXYX",
"CXZXYXYXYXYXYXuXK t           o .                               . o           t K tXYXYXYXYXYX:XU -   < ` D._.!.1Xq.6.u.c.kXYXYX",
"CXZXYXYXYXYXYXuXK t     .     o o .       .           % q y B y w o           y  XuXYXPXmXpXtXXXn ;   < ` D._.!.1Xw.6.u.c.8XYXYX",
"CXZXYXYXYXYXYXuXK y . . . . . O O o . . o o . . . . . q J @XOX XV %           B +XpXYXAXaX%XA.C e @   < ` D.'.!.1Xw.7.p.v.8XYXYX",
"CXZXYXYXYXYXYXuX Xy o o o o o O O o o o O O o . . . o B .XyXnXtXK w           V OXfXYXmX;XP u w @ .   < ' T.'.~.1Xw.7.p.v.kXYXYX",
"CXZXYXYXYXYXYXuXK t           o .       . o           B OXnXYXnX*XV           V *XnXYXnX%XV           k V.T._.~.>.q.6.u.c.8XYXYX",
"CXZXYXYXYXYXYXtXL w                                   t  XuXnXnX=X XB y 0 o   B OXmXYXnXoXq       5 8 N F.R._.^.>.4.6.0.x.8XYXYX",
"CXZXYXYXYXYXYXtXJ &                                   % Z .X*X=XuX:XOX XV %   u +XnXYXfXR -     $ M @.C.T./.`.W.;.3.6.8.x.8XYXYX",
"CXZXYXYXYXYXYXtXJ 0                                     0 y V  XtXmXnX-XJ &   q A.hXYXfXR p     9 @.P.I./.).`.W.;.3.6.8.x.8XYXYX",
"CXZXYXYXYXYXYXuXK t           o .               . o           B *XmXYXaXK 0   0 A.pXYXgXXXd   = M Z._._._._._.J.-.4.6.i.v.kXYXYX",
"ZXZXYXYXYXYXYXpXOXC t t t t t y y t t t t t t y y y t &       % L tXnX=XJ &   w K pXYXnX*XA 8 m M.I._._.(.^.J.K.d.e.a.l.6XlXYXFX",
"PXPXYXYXYXYXYXnX=XOX X X XA. X X X X XK K K  X X X X XZ &       B  X*X XV %   q E pXYXmX<XB.m.M.F.)._.'.J.:.g.d.f.z.b.6X8XMXYXHX",
"KXKXYXYXYXYXYXCXnXpXuXuXuXuXuXuXyXuXuXtXtXtXuXuXyXyXuX+XV .     % y V y w o   e R dXYXAXwXY.P.U./.`._.(.K.2.4.e.h.5XkXxXMXDXYXSX",
"YXYXYXYXYXYXYXYXYXYXYXYXYXYXYXYXYXYXYXKXPXZXYXYXYXYXYXuX Xu                   s XXsXYXVXeX}._.).`._._.J.g.4.6.9.x.8XYXYXYXYXYXSX",
"KXKXKXKXPXKXKXYXYXYXYXYXYXYXYXYXYXYXYXYXYXYXYXYXYXYXYXmX*XJ y w .             s XXsXYXVXrX|.[.[.].^.J.K.f.y.9.a.4XzXYXYXYXYXYXSX",
"PXPXPXPXPXPXPXYXYXYXYXYXYXYXYXYXYXYXYXYXYXYXYXYXYXYXYXZXyX*X XZ 0           . V XXsXYXGXvXeX|.|.0X>.s.f.t.j.x.b.7XNXYXYXYXYXYXHX",
"PXPXZXZXZXZXZXPXYXYXYXYXYXYXYXYXYXYXYXYXYXYXYXYXYXYXYXPXnXpXtX@XZ o       X o V XXiXYXJXVXvXcXbX3Xw.4.5.h.4X8XkXzXYXYXYXYXYXYXKX",
"YXYXYXYXYXYXYXYXYXYXYXYXYXYXYXYXYXYXYXYXYXYXYXKXPXZXYXYXYXYXYXuX Xy           y <.yXYXYXYXYXYX9Xk.9.6.9.x.8XYXYXYXYXYXHXHXKXYXYX",
"YXYXYXYXYXYXYXYXYXYXYXYXYXYXYXYXYXYXYXYXYXYXYXYXYXYXYXYXYXYXYXPX-XL y q O     w L tXYXSXzXkX9Xn.a.9.9.a.4XMXYXYXYXKXSXDXSXHXYXYX",
"YXYXYXYXYXYXYXYXYXYXYXYXYXYXYXYXYXYXYXYXYXYXYXYXYXYXYXYXYXYXYXYXnX-X.XZ 0   X % H >XYXNX7Xn.k.a.a.j.x.b.8XDXYXYXYXYXHXSXSXHXYXYX",
"YXYXYXYXYXYXYXYXYXYXYXYXYXYXYXYXYXYXYXYXYXYXYXYXYXYXYXYXYXYXYXYXPXnXyX.Xy     # H >XYXzX6Xj.0.0.j.4X8XkXzXKXYXYXYXYXKXKXKXKXYXYX",
"YXYXYXYXYXYXYXYXYXYXYXYXYXYXYXYXYXYXYXYXYXYXYXYXYXYXYXKXPXZXYXYXYXYXYX=XG *   1 [ >XYXzX4Xi.6.0.k.8XYXYXYXYXYXSXHXKXYXYXYXYXYXYX",
"uXuXuXuXuX2X2X2X2X2X2X2X2X2X2X2X2X:X:X:X,X,X,X,X,X,X,X,X:X=XtXaXmXYXYXpX.XV t A [ jXYXMX6Xj.y.a.5XxXYXYXYXYXSXDXSXHXYXYXYXYXYXYX",
" X X X<.<.,.,.,.,.,.,.,.,.,.,.Y U U I D I F } } | | F F P K K OXyXZXYXCX=XoX<..X>XhXYXNX8Xb.x.b.9XZXYXYXYXYXHXSXSXKXYXYXYXYXYXYX",
"t t t i i 7 7 7 7 7 7 7 7 7 7 7 7 - - - 3 2 2 2 2 2 2 2 r r t J *XnXYXHXnXaXuXyXhXIXYXHXzXkX8XkXzXHXYXYXYXYXKXHXKXKXYXYXYXYXYXYX",
"                                      X         o o           t  XuXYXYXYXYXYXZXPXKXYXYXYXYXYXYXYXYXYXYXYXYXYXYXYXYXYXYXYXYXYXYX",
"        X # : : : : : : : : : : > < 9 5 4 4 4 4 6 6 4 $       & J =XZXYXYXYXYXYXYXYXYXYXYXYXYXYXYXYXSXHXHXKXYXYXYXYXYXYXYXYXYXYX",
"        : g W W W W W h h h W W ~ ` m.N O.X.X.X.X.X.X.x 4     * F =XPXYXYXYXYXYXYXYXYXYXYXYXYXYXYXYXHXHXHXKXYXYXYXYXYXYXYXYXYXYX",
"      # g Q ^ ^ ^ ^ ^ / / / ^ ) { F.I.G.=.%.$.$.$.$.$.o.z +   3 F ,XKXYXYXYXYXYXYXYXYXYXYXYXYXYXYXYXKXKXKXKXYXYXYXYXYXYXYXYXYXYX",
"      , h ! ( ( ( ( ( ( ( ( ( _ S.R.`.Q.=.*.&.&.&.&.&.+.v $   2 [ ,XYXYXYXYXYXZXPXKXYXYXYXYXYXYXYXYXYXYXYXYXYXYXYXYXYXYXYXYXYXYX",
". . . , j ! ^ / / / / / / / / ) { D.I.G.=.%.$.$.$.$.$.+.x $ o r | ,XYXKXPXPXPXCXZXPXYXKXKXHXHXHXHXKXYXYXYXYXYXYXYXYXYXYXYXYXYXYX",
". . . > f j Q Q Q Q Q Q W Q Q ~ ] ' N.@.#.O.o.o.o.o.o.v 6 $ . r ..uXYXKXHXPXPXCXZXKXYXKXHXHXHXHXHXKXYXYXYXYXYXYXYXYXYXYXYXYXYXYX",
"    X + # , f f , f f , , , f f < k m 8 c z 6 z z z z 6 $ +   t ..uXYXYXKXKXKXZXZXKXYXYXKXKXKXKXKXYXYXYXYXYXYXYXYXYXYXYXYXYXYXYX",
"                                              X o o X X       t ..uXYXYXYXYXYXZXPXKXYXYXYXYXYXYXYXYXYXYXYXYXYXYXYXYXYXYXYXYXYXYX",
"                                            X X . . X X       u  XyXYXYXYXYXYXZXPXKXYXYXYXYXYXYXYXYXYXYXYXYXYXYXYXYXYXYXYXYXYXYX"
};
